<mxfile host="app.diagrams.net" modified="2023-11-28T20:49:21.507Z" agent="Mozilla/5.0 (Windows NT 10.0; Win64; x64) AppleWebKit/537.36 (KHTML, like Gecko) Chrome/119.0.0.0 Safari/537.36" etag="BGGaF8IWl9HAnCE_dh8K" version="22.1.4" type="google">
  <diagram name="Страница — 1" id="qiVENkIFac_oLG_SXNMz">
    <mxGraphModel grid="1" page="1" gridSize="10" guides="1" tooltips="1" connect="1" arrows="1" fold="1" pageScale="1" pageWidth="1169" pageHeight="827" math="0" shadow="0">
      <root>
        <mxCell id="0" />
        <mxCell id="1" parent="0" />
        <mxCell id="nsT601dHXzGKFnKOP1Hn-2" value="Спланировать технических аспектов" style="rounded=0;whiteSpace=wrap;html=1;" vertex="1" parent="1">
          <mxGeometry x="280" y="160" width="120" height="80" as="geometry" />
        </mxCell>
        <mxCell id="nsT601dHXzGKFnKOP1Hn-3" value="Разместить афишу и рекламу" style="rounded=0;whiteSpace=wrap;html=1;" vertex="1" parent="1">
          <mxGeometry x="480" y="240" width="120" height="80" as="geometry" />
        </mxCell>
        <mxCell id="nsT601dHXzGKFnKOP1Hn-5" value="1" style="text;html=1;strokeColor=none;fillColor=none;align=center;verticalAlign=middle;whiteSpace=wrap;rounded=0;" vertex="1" parent="1">
          <mxGeometry x="380" y="220" width="20" height="20" as="geometry" />
        </mxCell>
        <mxCell id="nsT601dHXzGKFnKOP1Hn-6" value="2" style="text;html=1;strokeColor=none;fillColor=none;align=center;verticalAlign=middle;whiteSpace=wrap;rounded=0;" vertex="1" parent="1">
          <mxGeometry x="580" y="300" width="20" height="20" as="geometry" />
        </mxCell>
        <mxCell id="nsT601dHXzGKFnKOP1Hn-7" value="" style="endArrow=classic;html=1;rounded=0;entryX=-0.013;entryY=0.167;entryDx=0;entryDy=0;entryPerimeter=0;" edge="1" parent="1" target="nsT601dHXzGKFnKOP1Hn-2">
          <mxGeometry width="50" height="50" relative="1" as="geometry">
            <mxPoint x="-20" y="172.5" as="sourcePoint" />
            <mxPoint x="80" y="172.5" as="targetPoint" />
            <Array as="points">
              <mxPoint x="20" y="172.5" />
            </Array>
          </mxGeometry>
        </mxCell>
        <mxCell id="nsT601dHXzGKFnKOP1Hn-10" value="" style="endArrow=classic;html=1;rounded=0;entryX=0.004;entryY=0.847;entryDx=0;entryDy=0;entryPerimeter=0;" edge="1" parent="1" target="nsT601dHXzGKFnKOP1Hn-2">
          <mxGeometry width="50" height="50" relative="1" as="geometry">
            <mxPoint x="-20" y="230" as="sourcePoint" />
            <mxPoint x="30" y="180" as="targetPoint" />
          </mxGeometry>
        </mxCell>
        <mxCell id="nsT601dHXzGKFnKOP1Hn-12" value="" style="endArrow=classic;html=1;rounded=0;edgeStyle=orthogonalEdgeStyle;entryX=0;entryY=0.5;entryDx=0;entryDy=0;" edge="1" parent="1">
          <mxGeometry width="50" height="50" relative="1" as="geometry">
            <mxPoint x="400" y="215" as="sourcePoint" />
            <mxPoint x="480" y="275" as="targetPoint" />
            <Array as="points">
              <mxPoint x="441" y="215" />
              <mxPoint x="441" y="275" />
            </Array>
          </mxGeometry>
        </mxCell>
        <mxCell id="nsT601dHXzGKFnKOP1Hn-13" value="" style="endArrow=classic;html=1;rounded=0;edgeStyle=orthogonalEdgeStyle;entryX=0;entryY=0.5;entryDx=0;entryDy=0;" edge="1" parent="1">
          <mxGeometry width="50" height="50" relative="1" as="geometry">
            <mxPoint x="600" y="290" as="sourcePoint" />
            <mxPoint x="680" y="350" as="targetPoint" />
            <Array as="points">
              <mxPoint x="641" y="290" />
              <mxPoint x="641" y="350" />
            </Array>
          </mxGeometry>
        </mxCell>
        <mxCell id="nsT601dHXzGKFnKOP1Hn-14" value="" style="group" connectable="0" vertex="1" parent="1">
          <mxGeometry x="680" y="320" width="120" height="80" as="geometry" />
        </mxCell>
        <mxCell id="nsT601dHXzGKFnKOP1Hn-15" value="Провести технические проверки" style="rounded=0;whiteSpace=wrap;html=1;" vertex="1" parent="nsT601dHXzGKFnKOP1Hn-14">
          <mxGeometry width="120" height="80" as="geometry" />
        </mxCell>
        <mxCell id="nsT601dHXzGKFnKOP1Hn-16" value="3" style="text;html=1;strokeColor=none;fillColor=none;align=center;verticalAlign=middle;whiteSpace=wrap;rounded=0;" vertex="1" parent="nsT601dHXzGKFnKOP1Hn-14">
          <mxGeometry x="100" y="60" width="20" height="20" as="geometry" />
        </mxCell>
        <mxCell id="nsT601dHXzGKFnKOP1Hn-17" value="" style="endArrow=classic;html=1;rounded=0;edgeStyle=orthogonalEdgeStyle;exitX=0.871;exitY=-0.074;exitDx=0;exitDy=0;exitPerimeter=0;entryX=-0.007;entryY=0.916;entryDx=0;entryDy=0;entryPerimeter=0;" edge="1" parent="1" target="nsT601dHXzGKFnKOP1Hn-15">
          <mxGeometry width="50" height="50" relative="1" as="geometry">
            <mxPoint x="242.14000000000019" y="229.99999999999997" as="sourcePoint" />
            <mxPoint x="480.0000000000003" y="312.78" as="targetPoint" />
            <Array as="points">
              <mxPoint x="242" y="393" />
            </Array>
          </mxGeometry>
        </mxCell>
        <mxCell id="nsT601dHXzGKFnKOP1Hn-18" value="" style="group" connectable="0" vertex="1" parent="1">
          <mxGeometry x="880" y="400" width="120" height="80" as="geometry" />
        </mxCell>
        <mxCell id="nsT601dHXzGKFnKOP1Hn-19" value="Произвести тестовый показ" style="rounded=0;whiteSpace=wrap;html=1;" vertex="1" parent="nsT601dHXzGKFnKOP1Hn-18">
          <mxGeometry width="120" height="80" as="geometry" />
        </mxCell>
        <mxCell id="nsT601dHXzGKFnKOP1Hn-20" value="4" style="text;html=1;strokeColor=none;fillColor=none;align=center;verticalAlign=middle;whiteSpace=wrap;rounded=0;" vertex="1" parent="nsT601dHXzGKFnKOP1Hn-18">
          <mxGeometry x="100" y="60" width="20" height="20" as="geometry" />
        </mxCell>
        <mxCell id="nsT601dHXzGKFnKOP1Hn-21" value="Технический план введения фильма в прокат" style="text;html=1;strokeColor=none;fillColor=none;align=center;verticalAlign=middle;whiteSpace=wrap;rounded=0;" vertex="1" parent="1">
          <mxGeometry x="410" y="147.5" width="100" height="55" as="geometry" />
        </mxCell>
        <mxCell id="nsT601dHXzGKFnKOP1Hn-22" value="" style="endArrow=classic;html=1;rounded=0;entryX=-0.003;entryY=0.624;entryDx=0;entryDy=0;entryPerimeter=0;edgeStyle=orthogonalEdgeStyle;" edge="1" parent="1" target="nsT601dHXzGKFnKOP1Hn-15">
          <mxGeometry width="50" height="50" relative="1" as="geometry">
            <mxPoint x="441" y="230" as="sourcePoint" />
            <mxPoint x="670.48" y="370.8800000000001" as="targetPoint" />
            <Array as="points">
              <mxPoint x="441" y="370" />
            </Array>
          </mxGeometry>
        </mxCell>
        <mxCell id="nsT601dHXzGKFnKOP1Hn-23" value="Минимально-достаточная клиентская база" style="text;html=1;strokeColor=none;fillColor=none;align=center;verticalAlign=middle;whiteSpace=wrap;rounded=0;" vertex="1" parent="1">
          <mxGeometry x="610" y="240" width="90" height="50" as="geometry" />
        </mxCell>
        <mxCell id="nsT601dHXzGKFnKOP1Hn-24" value="Скорректировать маркетинговые стратегии и расписание" style="rounded=0;whiteSpace=wrap;html=1;" vertex="1" parent="1">
          <mxGeometry x="1080" y="480" width="120" height="80" as="geometry" />
        </mxCell>
        <mxCell id="nsT601dHXzGKFnKOP1Hn-26" value="" style="endArrow=classic;html=1;rounded=0;edgeStyle=orthogonalEdgeStyle;entryX=0;entryY=0.5;entryDx=0;entryDy=0;" edge="1" parent="1" target="nsT601dHXzGKFnKOP1Hn-19">
          <mxGeometry width="50" height="50" relative="1" as="geometry">
            <mxPoint x="800" y="350" as="sourcePoint" />
            <mxPoint x="850" y="440" as="targetPoint" />
            <Array as="points">
              <mxPoint x="850" y="350" />
              <mxPoint x="850" y="440" />
            </Array>
          </mxGeometry>
        </mxCell>
        <mxCell id="nsT601dHXzGKFnKOP1Hn-27" value="Готовая к тестовому показу копия фильма" style="text;html=1;strokeColor=none;fillColor=none;align=center;verticalAlign=middle;whiteSpace=wrap;rounded=0;" vertex="1" parent="1">
          <mxGeometry x="800" y="290" width="90" height="50" as="geometry" />
        </mxCell>
        <mxCell id="nsT601dHXzGKFnKOP1Hn-28" value="" style="endArrow=classic;html=1;rounded=0;edgeStyle=orthogonalEdgeStyle;entryX=0;entryY=0.5;entryDx=0;entryDy=0;" edge="1" parent="1">
          <mxGeometry width="50" height="50" relative="1" as="geometry">
            <mxPoint x="1000" y="430" as="sourcePoint" />
            <mxPoint x="1080" y="520" as="targetPoint" />
            <Array as="points">
              <mxPoint x="1050" y="430" />
              <mxPoint x="1050" y="520" />
            </Array>
          </mxGeometry>
        </mxCell>
        <mxCell id="nsT601dHXzGKFnKOP1Hn-29" value="Реакция на тестовый показ" style="text;html=1;strokeColor=none;fillColor=none;align=center;verticalAlign=middle;whiteSpace=wrap;rounded=0;" vertex="1" parent="1">
          <mxGeometry x="1010" y="380" width="90" height="50" as="geometry" />
        </mxCell>
        <mxCell id="nsT601dHXzGKFnKOP1Hn-30" value="Фильм, готовый к прокату" style="text;html=1;strokeColor=none;fillColor=none;align=center;verticalAlign=middle;whiteSpace=wrap;rounded=0;" vertex="1" parent="1">
          <mxGeometry x="820" y="550" width="260" height="30" as="geometry" />
        </mxCell>
        <mxCell id="nsT601dHXzGKFnKOP1Hn-31" value="5" style="text;html=1;strokeColor=none;fillColor=none;align=center;verticalAlign=middle;whiteSpace=wrap;rounded=0;" vertex="1" parent="1">
          <mxGeometry x="1180" y="540" width="20" height="20" as="geometry" />
        </mxCell>
        <mxCell id="nsT601dHXzGKFnKOP1Hn-33" value="Готовая маркетинговая стратегия для полноценного проката фильма&amp;nbsp;" style="text;html=1;strokeColor=none;fillColor=none;align=center;verticalAlign=middle;whiteSpace=wrap;rounded=0;" vertex="1" parent="1">
          <mxGeometry x="1200" y="470" width="150" height="30" as="geometry" />
        </mxCell>
        <mxCell id="nsT601dHXzGKFnKOP1Hn-36" value="" style="endArrow=classic;html=1;rounded=0;" edge="1" parent="1">
          <mxGeometry width="50" height="50" relative="1" as="geometry">
            <mxPoint x="1200" y="520" as="sourcePoint" />
            <mxPoint x="1360" y="520" as="targetPoint" />
          </mxGeometry>
        </mxCell>
        <mxCell id="nsT601dHXzGKFnKOP1Hn-39" value="Персонал кинотеатра" style="text;html=1;strokeColor=none;fillColor=none;align=center;verticalAlign=middle;whiteSpace=wrap;rounded=0;" vertex="1" parent="1">
          <mxGeometry x="60" y="690" width="60" height="30" as="geometry" />
        </mxCell>
        <mxCell id="nsT601dHXzGKFnKOP1Hn-41" value="Пиар-отдел" style="text;html=1;strokeColor=none;fillColor=none;align=center;verticalAlign=middle;whiteSpace=wrap;rounded=0;" vertex="1" parent="1">
          <mxGeometry x="140" y="700" width="70" height="45" as="geometry" />
        </mxCell>
        <mxCell id="nsT601dHXzGKFnKOP1Hn-42" value="" style="endArrow=classic;html=1;rounded=0;entryX=0.171;entryY=0.003;entryDx=0;entryDy=0;entryPerimeter=0;" edge="1" parent="1">
          <mxGeometry width="50" height="50" relative="1" as="geometry">
            <mxPoint x="339.58" y="80" as="sourcePoint" />
            <mxPoint x="340.09999999999997" y="160.24" as="targetPoint" />
            <Array as="points">
              <mxPoint x="339.58" y="130" />
            </Array>
          </mxGeometry>
        </mxCell>
        <mxCell id="nsT601dHXzGKFnKOP1Hn-43" value="Административные и технические требования" style="text;html=1;strokeColor=none;fillColor=none;align=center;verticalAlign=middle;whiteSpace=wrap;rounded=0;" vertex="1" parent="1">
          <mxGeometry x="310" y="50" width="60" height="30" as="geometry" />
        </mxCell>
        <mxCell id="nsT601dHXzGKFnKOP1Hn-44" value="" style="endArrow=classic;html=1;rounded=0;entryX=0.333;entryY=1;entryDx=0;entryDy=0;entryPerimeter=0;" edge="1" parent="1" target="nsT601dHXzGKFnKOP1Hn-2">
          <mxGeometry width="50" height="50" relative="1" as="geometry">
            <mxPoint x="320" y="480" as="sourcePoint" />
            <mxPoint x="370" y="430" as="targetPoint" />
          </mxGeometry>
        </mxCell>
        <mxCell id="nsT601dHXzGKFnKOP1Hn-45" value="" style="endArrow=classic;html=1;rounded=0;edgeStyle=orthogonalEdgeStyle;" edge="1" parent="1">
          <mxGeometry width="50" height="50" relative="1" as="geometry">
            <mxPoint x="160" y="480" as="sourcePoint" />
            <mxPoint x="720" y="400" as="targetPoint" />
            <Array as="points">
              <mxPoint x="720" y="480" />
            </Array>
          </mxGeometry>
        </mxCell>
        <mxCell id="nsT601dHXzGKFnKOP1Hn-46" value="Киномеханик" style="text;html=1;strokeColor=none;fillColor=none;align=center;verticalAlign=middle;whiteSpace=wrap;rounded=0;" vertex="1" parent="1">
          <mxGeometry x="80" y="450" width="120" height="30" as="geometry" />
        </mxCell>
        <mxCell id="nsT601dHXzGKFnKOP1Hn-47" value="" style="endArrow=classic;html=1;rounded=0;edgeStyle=orthogonalEdgeStyle;" edge="1" parent="1">
          <mxGeometry width="50" height="50" relative="1" as="geometry">
            <mxPoint x="360" y="560" as="sourcePoint" />
            <mxPoint x="360" y="240" as="targetPoint" />
          </mxGeometry>
        </mxCell>
        <mxCell id="nsT601dHXzGKFnKOP1Hn-48" value="Аппаратура кинотеатра" style="text;html=1;strokeColor=none;fillColor=none;align=center;verticalAlign=middle;whiteSpace=wrap;rounded=0;" vertex="1" parent="1">
          <mxGeometry x="330" y="560" width="60" height="30" as="geometry" />
        </mxCell>
        <mxCell id="nsT601dHXzGKFnKOP1Hn-49" value="" style="endArrow=classic;html=1;rounded=0;edgeStyle=orthogonalEdgeStyle;" edge="1" parent="1">
          <mxGeometry width="50" height="50" relative="1" as="geometry">
            <mxPoint x="170" y="681" as="sourcePoint" />
            <mxPoint x="960" y="480" as="targetPoint" />
            <Array as="points">
              <mxPoint x="960" y="680" />
            </Array>
          </mxGeometry>
        </mxCell>
        <mxCell id="nsT601dHXzGKFnKOP1Hn-50" value="" style="endArrow=classic;html=1;rounded=0;edgeStyle=orthogonalEdgeStyle;" edge="1" parent="1">
          <mxGeometry width="50" height="50" relative="1" as="geometry">
            <mxPoint x="100" y="640" as="sourcePoint" />
            <mxPoint x="900" y="480" as="targetPoint" />
            <Array as="points">
              <mxPoint x="100" y="641" />
              <mxPoint x="900" y="641" />
              <mxPoint x="900" y="560" />
            </Array>
          </mxGeometry>
        </mxCell>
        <mxCell id="nsT601dHXzGKFnKOP1Hn-51" value="" style="endArrow=classic;html=1;rounded=0;edgeStyle=orthogonalEdgeStyle;entryX=0.664;entryY=1.026;entryDx=0;entryDy=0;entryPerimeter=0;" edge="1" parent="1">
          <mxGeometry width="50" height="50" relative="1" as="geometry">
            <mxPoint x="360" y="517.92" as="sourcePoint" />
            <mxPoint x="759.6799999999998" y="399.99999999999994" as="targetPoint" />
          </mxGeometry>
        </mxCell>
        <mxCell id="nsT601dHXzGKFnKOP1Hn-52" value="" style="endArrow=classic;html=1;rounded=0;" edge="1" parent="1">
          <mxGeometry width="50" height="50" relative="1" as="geometry">
            <mxPoint x="564.41" y="420" as="sourcePoint" />
            <mxPoint x="564.41" y="320" as="targetPoint" />
          </mxGeometry>
        </mxCell>
        <mxCell id="nsT601dHXzGKFnKOP1Hn-54" value="" style="endArrow=classic;html=1;rounded=0;entryX=0.677;entryY=-0.029;entryDx=0;entryDy=0;entryPerimeter=0;" edge="1" parent="1" target="nsT601dHXzGKFnKOP1Hn-3">
          <mxGeometry width="50" height="50" relative="1" as="geometry">
            <mxPoint x="560" y="120" as="sourcePoint" />
            <mxPoint x="610" y="70" as="targetPoint" />
          </mxGeometry>
        </mxCell>
        <mxCell id="nsT601dHXzGKFnKOP1Hn-55" value="Правила размещения рекламы" style="text;html=1;strokeColor=none;fillColor=none;align=center;verticalAlign=middle;whiteSpace=wrap;rounded=0;" vertex="1" parent="1">
          <mxGeometry x="510" y="70" width="110" height="60" as="geometry" />
        </mxCell>
        <mxCell id="nsT601dHXzGKFnKOP1Hn-56" value="" style="endArrow=classic;html=1;rounded=0;entryX=0.833;entryY=0;entryDx=0;entryDy=0;entryPerimeter=0;" edge="1" parent="1">
          <mxGeometry width="50" height="50" relative="1" as="geometry">
            <mxPoint x="739.84" y="200" as="sourcePoint" />
            <mxPoint x="739.8000000000001" y="320" as="targetPoint" />
            <Array as="points">
              <mxPoint x="739.84" y="260" />
            </Array>
          </mxGeometry>
        </mxCell>
        <mxCell id="nsT601dHXzGKFnKOP1Hn-57" value="Стандарты качества кинотеатра" style="text;html=1;strokeColor=none;fillColor=none;align=center;verticalAlign=middle;whiteSpace=wrap;rounded=0;" vertex="1" parent="1">
          <mxGeometry x="710" y="160" width="60" height="30" as="geometry" />
        </mxCell>
        <mxCell id="nsT601dHXzGKFnKOP1Hn-58" value="" style="endArrow=classic;html=1;rounded=0;entryX=0.833;entryY=0;entryDx=0;entryDy=0;entryPerimeter=0;" edge="1" parent="1">
          <mxGeometry width="50" height="50" relative="1" as="geometry">
            <mxPoint x="910.04" y="280" as="sourcePoint" />
            <mxPoint x="910" y="400" as="targetPoint" />
            <Array as="points">
              <mxPoint x="910.04" y="340" />
            </Array>
          </mxGeometry>
        </mxCell>
        <mxCell id="nsT601dHXzGKFnKOP1Hn-59" value="" style="endArrow=classic;html=1;rounded=0;entryX=0.833;entryY=0;entryDx=0;entryDy=0;entryPerimeter=0;" edge="1" parent="1">
          <mxGeometry width="50" height="50" relative="1" as="geometry">
            <mxPoint x="970.04" y="280" as="sourcePoint" />
            <mxPoint x="970" y="400" as="targetPoint" />
            <Array as="points">
              <mxPoint x="970.04" y="340" />
            </Array>
          </mxGeometry>
        </mxCell>
        <mxCell id="nsT601dHXzGKFnKOP1Hn-60" value="Правила проката" style="text;html=1;strokeColor=none;fillColor=none;align=center;verticalAlign=middle;whiteSpace=wrap;rounded=0;" vertex="1" parent="1">
          <mxGeometry x="860" y="227.5" width="90" height="50" as="geometry" />
        </mxCell>
        <mxCell id="nsT601dHXzGKFnKOP1Hn-61" value="Анонимный опрос фокус группы" style="text;html=1;strokeColor=none;fillColor=none;align=center;verticalAlign=middle;whiteSpace=wrap;rounded=0;" vertex="1" parent="1">
          <mxGeometry x="930" y="227.5" width="90" height="50" as="geometry" />
        </mxCell>
        <mxCell id="nsT601dHXzGKFnKOP1Hn-62" value="" style="endArrow=none;html=1;rounded=0;" edge="1" parent="1">
          <mxGeometry width="50" height="50" relative="1" as="geometry">
            <mxPoint x="960" y="680" as="sourcePoint" />
            <mxPoint x="1140" y="680" as="targetPoint" />
          </mxGeometry>
        </mxCell>
        <mxCell id="nsT601dHXzGKFnKOP1Hn-63" value="" style="endArrow=classic;html=1;rounded=0;entryX=0.5;entryY=1;entryDx=0;entryDy=0;" edge="1" parent="1" target="nsT601dHXzGKFnKOP1Hn-24">
          <mxGeometry width="50" height="50" relative="1" as="geometry">
            <mxPoint x="1140" y="680" as="sourcePoint" />
            <mxPoint x="820" y="430" as="targetPoint" />
          </mxGeometry>
        </mxCell>
        <mxCell id="nsT601dHXzGKFnKOP1Hn-64" value="Правила построения стратегии кинотеатра" style="text;html=1;strokeColor=none;fillColor=none;align=center;verticalAlign=middle;whiteSpace=wrap;rounded=0;" vertex="1" parent="1">
          <mxGeometry x="1110" y="360" width="60" height="30" as="geometry" />
        </mxCell>
        <mxCell id="nsT601dHXzGKFnKOP1Hn-65" value="" style="endArrow=classic;html=1;rounded=0;entryX=0.5;entryY=0;entryDx=0;entryDy=0;exitX=0.483;exitY=1.233;exitDx=0;exitDy=0;exitPerimeter=0;" edge="1" parent="1" source="nsT601dHXzGKFnKOP1Hn-64" target="nsT601dHXzGKFnKOP1Hn-24">
          <mxGeometry width="50" height="50" relative="1" as="geometry">
            <mxPoint x="770" y="480" as="sourcePoint" />
            <mxPoint x="820" y="430" as="targetPoint" />
          </mxGeometry>
        </mxCell>
        <mxCell id="nsT601dHXzGKFnKOP1Hn-66" value="Прокатное удостоверение" style="text;html=1;strokeColor=none;fillColor=none;align=center;verticalAlign=middle;whiteSpace=wrap;rounded=0;" vertex="1" parent="1">
          <mxGeometry x="80" y="110" width="90" height="50" as="geometry" />
        </mxCell>
        <mxCell id="nsT601dHXzGKFnKOP1Hn-68" value="Прокатная копия фильма" style="text;html=1;strokeColor=none;fillColor=none;align=center;verticalAlign=middle;whiteSpace=wrap;rounded=0;" vertex="1" parent="1">
          <mxGeometry x="80" y="235" width="100" height="55" as="geometry" />
        </mxCell>
        <mxCell id="nsT601dHXzGKFnKOP1Hn-53" value="Художники и дизайнеры" style="text;html=1;strokeColor=none;fillColor=none;align=center;verticalAlign=middle;whiteSpace=wrap;rounded=0;" vertex="1" parent="1">
          <mxGeometry x="540" y="425" width="60" height="30" as="geometry" />
        </mxCell>
        <mxCell id="nsT601dHXzGKFnKOP1Hn-70" value="" style="endArrow=classic;html=1;rounded=0;entryX=0.25;entryY=1;entryDx=0;entryDy=0;" edge="1" parent="1" target="nsT601dHXzGKFnKOP1Hn-3">
          <mxGeometry width="50" height="50" relative="1" as="geometry">
            <mxPoint x="510" y="410" as="sourcePoint" />
            <mxPoint x="590" y="370" as="targetPoint" />
          </mxGeometry>
        </mxCell>
        <mxCell id="nsT601dHXzGKFnKOP1Hn-71" value="Типография" style="text;html=1;strokeColor=none;fillColor=none;align=center;verticalAlign=middle;whiteSpace=wrap;rounded=0;" vertex="1" parent="1">
          <mxGeometry x="460" y="425" width="60" height="30" as="geometry" />
        </mxCell>
      </root>
    </mxGraphModel>
  </diagram>
</mxfile>
